<svg xmlns="http://www.w3.org/2000/svg" version="1.1" xmlns:xlink="http://www.w3.org/1999/xlink" xmlns:svgjs="http://svgjs.dev/svgjs" width="1000" height="1000"><g clip-path="url(#SvgjsClipPath1262)"><rect width="1000" height="1000" fill="#dedede"></rect><g transform="matrix(1.125,0,0,1.125,50,50)"><svg xmlns="http://www.w3.org/2000/svg" version="1.1" xmlns:xlink="http://www.w3.org/1999/xlink" xmlns:svgjs="http://svgjs.dev/svgjs" width="800px" height="800px"><svg width="800px" height="800px" viewBox="0 0 72 72" id="emoji" version="1.1" xmlns="http://www.w3.org/2000/svg">
  <g id="line-supplement">
    <path id="xx" fill="none" stroke="#000000" stroke-linecap="round" stroke-linejoin="round" stroke-miterlimit="10" stroke-width="2" d="M15.1,47.5c0,0,14.4-2.1,49.4-1"></path>
  </g>
  <g id="color">
    <path fill="#D0CFCE" d="M52.6,26.7c0,0-13.7-1-23.8,5.6S12.6,44,12.6,44s-1.8,1.8-1.9,3.9c-0.2,3,6.9,3.9,6.9,3.9L33,52.9 c0.3,0,0.7,0,1,0h34.5c0,0-0.2-26.2,0-26.2C68.6,26.7,52.6,26.7,52.6,26.7z"></path>
    <path fill="#3F3F3F" d="M27.8,38.1l3,3h34.7v-7c0-0.6-0.4-1-1-1h-19c0,0-8.6-0.2-18.1,4.1"></path>
    <path fill="none" stroke="#EA5A47" stroke-linecap="round" stroke-linejoin="round" stroke-miterlimit="10" stroke-width="2" d="M15.1,47.5c0,0,14.4-2.1,49.4-1"></path>
  </g>
  <g id="hair"></g>
  <g id="skin"></g>
  <g id="skin-shadow"></g>
  <g id="line">
    <circle cx="42.2" cy="54" r="2"></circle>
    <circle cx="55.3" cy="54" r="2"></circle>
    <line x1="4.4" x2="67.5" y1="56" y2="56" fill="none" stroke="#000000" stroke-linecap="round" stroke-linejoin="round" stroke-miterlimit="10" stroke-width="2"></line>
    <path fill="none" stroke="#000000" stroke-linecap="round" stroke-linejoin="round" stroke-miterlimit="10" stroke-width="2" d="M52.6,26.7c0,0-13.7-1-23.8,5.6S12.6,44,12.6,44s-1.8,1.8-1.9,3.9c-0.2,3,6.9,3.9,6.9,3.9L33,52.9c0.3,0,0.7,0,1,0h34.5 c0,0-0.2-26.2,0-26.2C68.6,26.7,52.6,26.7,52.6,26.7z"></path>
    <polyline fill="none" stroke="#000000" stroke-linecap="round" stroke-linejoin="round" stroke-miterlimit="10" stroke-width="2" points="27.8,38.1 30.8,41.2 64.5,41.2"></polyline>
  </g>
</svg></svg></g></g><defs><clipPath id="SvgjsClipPath1262"><rect width="1000" height="1000" x="0" y="0" rx="350" ry="350"></rect></clipPath></defs></svg>